<svg xmlns="http://www.w3.org/2000/svg" viewBox="0 0 168.6 160.38"><defs><style>.cls-1{fill:#f04a3a;fill-rule:evenodd;}</style></defs><title>Asset 1</title><g id="Layer_2" data-name="Layer 2"><g id="Layer_1-2" data-name="Layer 1"><path class="cls-1" d="M43.73,75A18.7,18.7,0,0,0,62.48,56.26a17.48,17.48,0,0,0-4.84-12.44,18.28,18.28,0,0,0,4.84-12.54A18,18,0,0,0,57,18.06a18,18,0,0,0-13.23-5.53,18.68,18.68,0,0,0-6.91,1.28,18.58,18.58,0,0,0-6.71-9.87A17.4,17.4,0,0,0,18.75,0,18.16,18.16,0,0,0,5.43,5.53,18,18,0,0,0,0,18.75V56.26A18.12,18.12,0,0,0,5.43,69.59,18.12,18.12,0,0,0,18.75,75a18.13,18.13,0,0,0,12.44-4.74A18.5,18.5,0,0,0,43.73,75ZM25,37.51h6.22a6.11,6.11,0,0,0,4.49-1.83,6,6,0,0,0,1.83-4.39A6.21,6.21,0,0,1,48.12,26.9a6,6,0,0,1,1.83,4.39,18.26,18.26,0,0,1-4.74,12.54,17.9,17.9,0,0,1,4.74,12.44,6.15,6.15,0,0,1-1.83,4.44,6.08,6.08,0,0,1-8.79,0,6.15,6.15,0,0,1-1.83-4.44,6,6,0,0,0-1.83-4.39A6.11,6.11,0,0,0,31.19,50H25v6.22a6.15,6.15,0,0,1-1.83,4.44,5.91,5.91,0,0,1-4.39,1.88,6.07,6.07,0,0,1-4.44-1.88,6.07,6.07,0,0,1-1.88-4.44V18.75a5.91,5.91,0,0,1,1.88-4.39,6.15,6.15,0,0,1,4.44-1.83A6.23,6.23,0,0,1,25,18.75V37.51Z"/><path class="cls-1" d="M100.5,28.13a18.12,18.12,0,0,0,2.57-9.38A18,18,0,0,0,97.54,5.53,18.71,18.71,0,0,0,71,5.53a18,18,0,0,0-5.43,13.23A18.32,18.32,0,0,0,68,28.13a18.32,18.32,0,0,0-2.47,9.38V56.26A18.54,18.54,0,0,0,84.31,75a18.7,18.7,0,0,0,18.75-18.75V37.51A18.12,18.12,0,0,0,100.5,28.13ZM84.31,25.07a6.15,6.15,0,0,1-4.44-1.83A6,6,0,0,1,78,18.75a5.91,5.91,0,0,1,1.88-4.39,6.15,6.15,0,0,1,4.44-1.83,6.23,6.23,0,0,1,6.22,6.22,6.1,6.1,0,0,1-1.83,4.49A6,6,0,0,1,84.31,25.07Zm6.22,31.19a6.15,6.15,0,0,1-1.83,4.44,5.91,5.91,0,0,1-4.39,1.88A6.41,6.41,0,0,1,78,56.26V37.51a5.91,5.91,0,0,1,1.88-4.39,6.15,6.15,0,0,1,4.44-1.83,6.23,6.23,0,0,1,6.22,6.22Z"/><path class="cls-1" d="M168.6,43.79a30.14,30.14,0,0,0-9.18-22.11,31.1,31.1,0,0,0-44.12,0,30.14,30.14,0,0,0-9.18,22.11V56.22A18.54,18.54,0,0,0,124.87,75a17.7,17.7,0,0,0,12.44-4.84A18.28,18.28,0,0,0,149.84,75,18.7,18.7,0,0,0,168.6,56.22Zm-25,12.44V43.79a6.24,6.24,0,0,0-6.32-6.32,6,6,0,0,0-4.39,1.83,6.1,6.1,0,0,0-1.83,4.49V56.22a6.15,6.15,0,0,1-1.83,4.44,5.91,5.91,0,0,1-4.39,1.88,6.41,6.41,0,0,1-6.32-6.32V43.79a18,18,0,0,1,5.53-13.23,18.59,18.59,0,0,1,26.45,0,18,18,0,0,1,5.53,13.23V56.22a6.15,6.15,0,0,1-1.83,4.44,6.08,6.08,0,0,1-8.79,0A6.15,6.15,0,0,1,143.62,56.22Z"/><path class="cls-1" d="M43.66,97.9a30,30,0,0,0-22,9.18,31.1,31.1,0,0,0,0,44.12,30,30,0,0,0,22,9.18,30.14,30.14,0,0,0,22.11-9.18,31.1,31.1,0,0,0,0-44.12A30.14,30.14,0,0,0,43.66,97.9Zm0,25a6,6,0,0,0-4.39,1.83,6.1,6.1,0,0,0-1.83,4.49,6.23,6.23,0,0,0,6.22,6.22,6.11,6.11,0,0,0,4.49-1.83A6,6,0,0,0,50,129.19a6.24,6.24,0,0,0-6.32-6.32Zm0-12.44A18,18,0,0,1,56.88,116a18.59,18.59,0,0,1,0,26.45,18,18,0,0,1-13.23,5.53,18,18,0,0,1-13.23-5.53,18.59,18.59,0,0,1,0-26.45A18,18,0,0,1,43.66,110.44Z"/><path class="cls-1" d="M115.6,104.12A18.87,18.87,0,0,0,96.85,85.36a18.7,18.7,0,0,0-18.75,18.75v37.51a18.54,18.54,0,0,0,18.75,18.75,18.7,18.7,0,0,0,18.75-18.75Zm-12.54,0v37.51a6.15,6.15,0,0,1-1.83,4.44,5.91,5.91,0,0,1-4.39,1.88,6.41,6.41,0,0,1-6.32-6.32V104.12a5.91,5.91,0,0,1,1.88-4.39,6.15,6.15,0,0,1,4.44-1.83,6.24,6.24,0,0,1,6.22,6.22Z"/><path class="cls-1" d="M153.57,113.5a18.74,18.74,0,0,0-29.51-22.6,18,18,0,0,0-5.43,13.23,18.32,18.32,0,0,0,2.47,9.38,18.32,18.32,0,0,0-2.47,9.38v18.75a18.75,18.75,0,1,0,37.51,0V122.87A18.11,18.11,0,0,0,153.57,113.5Zm-16.19-3.06a6.15,6.15,0,0,1-4.44-1.83,6,6,0,0,1-1.88-4.49,5.91,5.91,0,0,1,1.88-4.39,6.15,6.15,0,0,1,4.44-1.83,6.23,6.23,0,0,1,6.22,6.22,6.1,6.1,0,0,1-1.83,4.49A6,6,0,0,1,137.38,110.44Zm6.22,31.19a6.15,6.15,0,0,1-1.83,4.44,5.91,5.91,0,0,1-4.39,1.88,6.41,6.41,0,0,1-6.32-6.32V122.87a5.91,5.91,0,0,1,1.88-4.39,6.15,6.15,0,0,1,4.44-1.83,6.23,6.23,0,0,1,6.22,6.22Z"/></g></g></svg>